<?xml version="1.0" encoding="utf-8"?>
<!-- Generator: Adobe Illustrator 23.0.3, SVG Export Plug-In . SVG Version: 6.00 Build 0)  -->
<svg version="1.1" id="Calque_1" xmlns="http://www.w3.org/2000/svg" xmlns:xlink="http://www.w3.org/1999/xlink" x="0px" y="0px"
	 viewBox="0 0 108 33" style="enable-background:new 0 0 108 33;" xml:space="preserve">
<style type="text/css">
	.st0{fill-rule:evenodd;clip-rule:evenodd;fill:#FFFFFF;}
	.st1{fill:#FFFFFF;}
</style>
<path class="st0" d="M15.9,1.3c2.9-0.1,6.4,0.5,7,2.4c1.1,3.2-4.3,7.7-8.9,10c-1.1,0.6-1.8,0.7-2.1,0.7c-0.3,0-0.3-0.3-0.2-0.5
	c0.2-0.3,0.9-1,1.9-1.7c5.2-3.8,6.9-6.6,5.9-7.8c-0.6-0.7-3.3-1.2-6-1.2c-0.7,0-2.7,0.2-2.9-0.5C10.3,2.2,13,1.5,15.9,1.3z"/>
<path class="st0" d="M9.3,15.7c2.4-0.1,5.4,0.3,7,1.4c0.8,0.6,1.4,1.6,1.1,2.8c-1,3.4-4.5,7.5-12.4,10.6c-2.5,1-4.5,1.4-4.9,1.1
	c-0.4-0.3,0.9-2.5,1.2-3.3c1.3-2.4,2.8-4.7,4.4-6.9c0.6-0.8,1.4-2.1,2.2-2c0.7,0.1-0.1,1.5-0.7,2.5c-0.9,1.5-3.4,5.8-2.6,6.1
	c1.8,0.6,10.5-5.3,9.2-8.6c-0.6-1.5-4.3-1.7-6.7-1.7c-1.1,0-3.4,0.2-3.6-0.5C3.5,16.5,7.2,15.8,9.3,15.7z"/>
<path class="st0" d="M28.2,11.7c1.5,0.2,2.7,0.4,2.9,1c0.3,0.6-1.3,0.7-2.1,0.7c-3.9,0.1-6.2,0.1-6.3,1.3c-0.2,1.5,1.6,3.1,3.4,5.2
	c1.6,2,3.5,3.9,2.9,5.7c-0.7,2.3-3.7,2.7-6.6,2.7c-2.8,0-5.4-0.4-6.5-0.6c-1.4-0.2-1.2-0.9-0.8-1.1c0.4-0.2,2.8-0.2,4.4-0.3
	c1.3-0.1,5.2-0.1,5.9-1c0.7-1.1-1.1-3-2.8-5c-2.1-2.5-4.4-5-3.2-6.9C21.1,11.1,25.7,11.3,28.2,11.7z"/>
<g>
	<path class="st1" d="M73.6,18.6H75l0.4-2h4.4l-0.4,2h1.4c0.2,0,0.4-0.1,0.4-0.3l0.7-3.4c0.5-2.6-1.1-3.2-3.2-3.2
		c-2.6,0-4.1,0.6-4.6,3.2l-0.7,3.4C73.3,18.5,73.4,18.6,73.6,18.6z M75.8,14.6c0.3-1.3,1.1-1.8,2.6-1.8c1.6,0,2,0.5,1.7,1.8
		c0,0-0.1,0.3-0.1,0.4c0,0.1-0.1,0.5-0.5,0.5h-4L75.8,14.6z M46.3,18.6h1.4l0.4-2h4.4l-0.4,2h1.4c0.2,0,0.4-0.1,0.4-0.3l0.7-3.4
		c0.5-2.6-1.1-3.2-3.2-3.2c-2.6,0-4.1,0.6-4.6,3.2L46,18.3C46,18.5,46.1,18.6,46.3,18.6z M48.5,14.6c0.3-1.3,1.1-1.8,2.6-1.8
		c1.6,0,2,0.5,1.7,1.8c0,0-0.1,0.3-0.1,0.4c0,0.1-0.1,0.5-0.5,0.5h-4L48.5,14.6z M69,21.8l0.1-0.6H62c-0.4,0-0.6,0.1-0.6,0.4
		l-0.1,0.7h2.9L63,28h1.3c0.4,0,0.6-0.1,0.7-0.5l1.1-5.3h2.4C68.8,22.3,69,22.1,69,21.8z M49.4,21.4l-0.7,3.1
		c-1.2,0.3-4.1,0.9-3.7-1.3l0.4-2H44c-0.2,0-0.3,0.1-0.3,0.2l-0.4,1.9c-0.8,3.5,2.9,3.1,5.3,2.4L48,28h1.3c0.4,0,0.6-0.1,0.7-0.5
		l1.3-6.3h-1.6C49.6,21.2,49.4,21.3,49.4,21.4z M90.6,21.6L89.2,28h6.9l0.1-0.7c0.1-0.3,0-0.4-0.4-0.4h-4.6l0.4-1.8h4
		c0.1,0,0.2-0.1,0.2-0.2l0.2-0.7c0-0.1,0-0.2-0.1-0.2h-4l0.4-1.8h4.4c0.2,0,0.4,0,0.5-0.3l0.2-0.8h-6.2
		C90.8,21.2,90.6,21.3,90.6,21.6z M70.2,21.6L68.8,28h6.9l0.1-0.7c0.1-0.3,0-0.4-0.4-0.4h-4.6l0.4-1.8h4c0.1,0,0.2-0.1,0.2-0.2
		l0.2-0.7c0-0.1,0-0.2-0.1-0.2h-4l0.4-1.8h4.4c0.2,0,0.4,0,0.5-0.3l0.2-0.8h-6.2C70.4,21.2,70.3,21.3,70.2,21.6z M88,21.2h-1.7
		L83,23.9l-2.1-2.6h-1.7c-0.3,0-0.4,0.2-0.5,0.4L77.4,28h1.4c0.3,0,0.5-0.1,0.5-0.4l1-4.8L82,25c0,0.1,0.2,0.2,0.4,0.2h0.7
		c0.2,0,0.4-0.1,0.5-0.2l2.6-2.1l-1,4.8c-0.1,0.3,0.1,0.4,0.4,0.4h1.4l1.4-6.4C88.3,21.4,88.3,21.2,88,21.2z M99.8,17.9
		c0.1-0.3-0.1-0.4-0.3-0.4h-4l1.2-5.5c0-0.1-0.1-0.2-0.2-0.2h-1.6l-1.4,6.8h6.3L99.8,17.9z M37.2,13.7c-0.2,0-0.3,0.1-0.3,0.2
		l-1,4.7h4.4c2.5,0,4.2-0.8,4.7-3.4c0.4-1.9-0.5-3.4-3-3.4h-5.3c0,0,0,0,0,0.1c-0.1,0.5-0.1,1,0.8,1h3.9c1.9,0,2.1,0.9,1.8,2.4
		c-0.4,1.5-1,2.2-2.4,2.3h-2.6l0.8-3.9H37.2z M100.9,11.8c-0.4,0-0.6,0.1-0.6,0.4l-0.1,0.7h2.9l-1.2,5.7h1.3c0.4,0,0.6-0.1,0.7-0.5
		l1.1-5.3h2.4c0.3,0,0.5-0.1,0.5-0.4l0.1-0.6H100.9z M63,17.4c0.2-0.5,0.2-1-0.3-1.6c-0.3-0.3-0.6-0.5-1.2-0.8
		c-2.3-1.2-2.9-1.3-2.8-1.9c0.1-0.3,0.3-0.3,1.2-0.3h2.7c0.4,0,0.6-0.1,0.6-0.4l0.1-0.6H60c-2,0-3.1,0-3.4,1.3
		c-0.2,1,0.6,1.4,2.3,2.4c1.8,1,2.2,1.1,2.1,1.7c-0.1,0.4-0.6,0.5-1.4,0.5h-3.2c-0.4,0-0.6,0.1-0.6,0.4l-0.1,0.6h4.1
		C61.4,18.6,62.5,18.5,63,17.4z M71.6,17.4c0.2-0.5,0.2-1-0.3-1.6c-0.3-0.3-0.6-0.5-1.2-0.8c-2.3-1.2-2.9-1.3-2.8-1.9
		c0.1-0.3,0.3-0.3,1.2-0.3h2.7c0.4,0,0.6-0.1,0.6-0.4l0.1-0.6h-3.5c-2,0-3.1,0-3.4,1.3c-0.2,1,0.6,1.4,2.3,2.4
		c1.8,1,2.2,1.1,2.1,1.7c-0.1,0.4-0.6,0.5-1.4,0.5h-3.2c-0.4,0-0.6,0.1-0.6,0.4l-0.1,0.6h4.1C70,18.6,71.2,18.5,71.6,17.4z
		 M98.6,22.5c-0.2,1,0.6,1.4,2.3,2.4c1.8,1,2.2,1.1,2.1,1.7c-0.1,0.4-0.6,0.5-1.4,0.5h-3.2c-0.4,0-0.6,0.1-0.6,0.4L97.4,28h4.1
		c1.9,0,3-0.1,3.5-1.1c0.2-0.5,0.2-1-0.3-1.6c-0.3-0.3-0.6-0.5-1.2-0.8c-2.3-1.2-2.9-1.3-2.8-1.9c0.1-0.3,0.3-0.3,1.2-0.3h2.7
		c0.4,0,0.6-0.1,0.6-0.4l0.1-0.6H102C100,21.2,98.9,21.2,98.6,22.5z M53,22.5c-0.2,1,0.6,1.4,2.3,2.4c1.8,1,2.2,1.1,2.1,1.7
		c-0.1,0.4-0.6,0.5-1.4,0.5h-3.2c-0.4,0-0.6,0.1-0.6,0.4L51.9,28h4.1c1.9,0,3-0.1,3.5-1.1c0.2-0.5,0.2-1-0.3-1.6
		c-0.3-0.3-0.6-0.5-1.2-0.8c-2.3-1.2-2.9-1.3-2.8-1.9c0.1-0.3,0.3-0.3,1.2-0.3h2.7c0.4,0,0.6-0.1,0.6-0.4l0.1-0.6h-3.5
		C54.5,21.2,53.3,21.2,53,22.5z M35,22.5c-0.2,1,0.6,1.4,2.3,2.4c1.8,1,2.2,1.1,2.1,1.7c-0.1,0.4-0.6,0.5-1.4,0.5h-3.2
		c-0.4,0-0.6,0.1-0.6,0.4L33.9,28H38c1.9,0,3-0.1,3.5-1.1c0.2-0.5,0.2-1-0.3-1.6c-0.3-0.3-0.6-0.5-1.2-0.8c-2.3-1.2-2.9-1.3-2.8-1.9
		c0.1-0.3,0.3-0.3,1.2-0.3h2.7c0.4,0,0.6-0.1,0.6-0.4l0.1-0.6h-3.5C36.5,21.2,35.3,21.2,35,22.5z M87.2,18.7c3.1,0,4.3-1,4.7-3.2
		l0.7-3.5c0-0.2-0.1-0.3-0.3-0.3h-1.5l-0.4,2l-0.2,1.1L90,15.8c-0.3,1.3-1.2,1.8-2.7,1.8c-1.7,0-2.1-0.6-1.8-1.8
		c0,0,0.1-0.3,0.1-0.4l0.3-1.6l0.4-2h-1.5c-0.2,0-0.4,0.1-0.4,0.3l-0.7,3.5C83.2,18,84.5,18.7,87.2,18.7z"/>
</g>
</svg>
