<svg width="250.28" height="50" xmlns="http://www.w3.org/2000/svg">
 <defs>
  <linearGradient y2="1.000016" x2="0.500018" y1="-0.000254" x1="0.500018" id="SVGID_4_">
   <stop stop-color="#FFFFFF" offset="0"/>
   <stop stop-color="#ADD136" offset="1"/>
  </linearGradient>
  <linearGradient y2="0.999991" x2="0.499987" y1="-0.000027" x1="0.499987" id="SVGID_5_">
   <stop stop-color="#FFFFFF" offset="0"/>
   <stop stop-color="#ADD136" offset="1"/>
  </linearGradient>
  <linearGradient y2="1.000009" x2="0.499992" y1="-0.000085" x1="0.499992" id="SVGID_6_">
   <stop stop-color="#FFFFFF" offset="0"/>
   <stop stop-color="#ADD136" offset="1"/>
  </linearGradient>
 </defs>
 <g>
  <title>background</title>
  <rect fill="none" id="canvas_background" height="52" width="252.28" y="-1" x="-1"/>
 </g>
 <g>
  <title>Layer 1</title>
  <g stroke="null" id="svg_74">
   <g stroke="null" id="svg_75">
    <g stroke="null" id="svg_76">
     <path stroke="null" id="svg_77" d="m85.273127,31.554901c-1.340061,0 -2.569397,-0.131309 -3.688007,-0.396056c-1.12003,-0.265457 -2.082489,-0.650866 -2.889507,-1.159068c-0.807018,-0.508911 -1.44014,-1.11861 -1.900076,-1.831227c-0.459226,-0.710488 -0.689195,-1.513957 -0.689195,-2.407567l0,-10.825535c0,-0.914904 0.229968,-1.737537 0.689195,-2.470028c0.459936,-0.731781 1.113642,-1.352127 1.961827,-1.860328c0.848185,-0.508201 1.851811,-0.899999 3.011588,-1.174683c1.159068,-0.273974 2.438797,-0.411671 3.839899,-0.411671l4.964188,0l0,4.202596l-4.720734,0c-3.248654,0 -4.871917,0.578469 -4.871917,1.735407l0,3.472234l19.978123,0l0,4.232407l-19.947603,0l0,2.954096c0,1.137774 1.47208,1.705597 4.416239,1.705597l15.531364,0l0,4.233116l-15.685386,0l0,0.00071z" fill="#ffffff"/>
     <path stroke="null" id="svg_78" d="m111.920325,31.554901c-5.623572,0 -8.435712,-1.897947 -8.435712,-5.694549l0,-6.730825c0,-3.634064 3.105989,-5.451096 9.318676,-5.451096l5.847152,0c5.907483,0 8.861579,1.817032 8.861579,5.451096l0,16.871425l-4.720024,0l0,-4.44605l-10.871671,0zm10.871671,-12.333814c0,-0.933358 -1.431622,-1.400392 -4.293448,-1.400392l-6.638554,0c-2.456542,0 -3.685168,0.44645 -3.685168,1.340061l0,6.760636c0,1.016402 1.137064,1.523184 3.411193,1.523184l11.206686,0l0,-8.223489l-0.00071,0z" fill="#ffffff"/>
     <path stroke="null" id="svg_79" d="m154.585085,13.679141l0,12.394854c0,1.88801 -0.729652,3.273496 -2.191795,4.15646c-1.461433,0.883674 -3.848417,1.324446 -7.156692,1.324446l-5.512846,0c-6.292892,0 -9.440758,-1.826969 -9.440758,-5.481616l0,-12.394145l4.720024,0l0,12.211732c0,1.015692 1.491954,1.522474 4.47799,1.522474l5.999044,0c2.902992,0 4.354488,-0.496845 4.354488,-1.492663l0,-12.241542l4.750545,0z" fill="#ffffff"/>
     <path stroke="null" id="svg_80" d="m174.502877,13.679141c2.516873,0 4.480829,0.491876 5.892578,1.477048c1.410329,0.985172 2.115848,2.390533 2.115848,4.218211l0,6.669075c0,3.675231 -2.670185,5.512136 -8.008426,5.512136l-8.95385,0c-1.137064,0 -2.20741,-0.131309 -3.212456,-0.396056c-1.005046,-0.264037 -1.88801,-0.628863 -2.650311,-1.096607c-0.760882,-0.467034 -1.365613,-1.029888 -1.811354,-1.689982c-0.44716,-0.660094 -0.669321,-1.385487 -0.669321,-2.177599l0,-2.252836c0,-0.83257 0.202287,-1.563641 0.60828,-2.192504c0.405283,-0.629573 0.974525,-1.156938 1.705597,-1.583515s1.59842,-0.750945 2.604176,-0.974525c1.004336,-0.22287 2.105912,-0.335015 3.303307,-0.335015l12.302583,0c0,-0.283911 -0.242744,-0.558595 -0.729652,-0.822633c-0.487618,-0.264037 -1.227916,-0.395346 -2.223025,-0.395346l-5.390764,0l0,-3.959142l5.11679,0l0,-0.00071zm-9.166784,8.953141c-2.274129,0 -3.411193,0.599053 -3.411193,1.797158l0,1.400392c0,1.05615 1.168295,1.583515 3.502045,1.583515l9.440758,0c0.67074,0 1.198105,-0.024842 1.583515,-0.075946c0.386119,-0.050394 0.679967,-0.19235 0.882254,-0.426577c0.202997,-0.232807 0.335725,-0.583438 0.396056,-1.049762c0.061751,-0.467034 0.092271,-1.116481 0.092271,-1.949051l0,-1.27973l-12.485706,0z" fill="#ffffff"/>
     <path stroke="null" id="svg_81" d="m185.191425,31.554901l0,-22.627015l4.903857,0l0,22.627015l-4.903857,0z" fill="#ffffff"/>
     <path stroke="null" id="svg_82" d="m198.774448,10.815896c0,0.711198 -0.289589,1.284698 -0.868059,1.720502c-0.579179,0.436514 -1.274052,0.655125 -2.086038,0.655125c-0.853153,0 -1.548736,-0.228549 -2.086038,-0.685646c-0.538012,-0.457097 -0.807018,-1.030598 -0.807018,-1.720502c0,-0.709778 0.278233,-1.283989 0.836828,-1.720502c0.558595,-0.436514 1.244241,-0.655125 2.056227,-0.655125c0.385409,0 0.760882,0.061041 1.126418,0.183123s0.681387,0.289589 0.944715,0.502523c0.263328,0.212933 0.476971,0.467034 0.6388,0.761592c0.162539,0.293848 0.244164,0.613958 0.244164,0.95891zm-5.421995,20.739005l0,-17.875761l4.690213,0l0,17.87647l-4.690213,0l0,-0.00071z" fill="#ffffff"/>
     <path stroke="null" id="svg_83" d="m207.757399,17.850506l0,13.704395l-4.719314,0l0,-13.704395l-2.710642,0l0,-3.83706l2.710642,0l0,-4.689504l4.719314,0l0,4.659693l7.186503,0l0,3.867581l-7.186503,0l0,-0.00071z" fill="#ffffff"/>
     <path stroke="null" id="svg_84" d="m240.769177,30.276591c0,0.953942 -0.188091,1.785092 -0.563564,2.496999c-0.375473,0.709778 -0.964588,1.304572 -1.765928,1.780833c-0.802049,0.476971 -1.841874,0.836828 -3.120894,1.080992c-1.28044,0.243454 -2.822787,0.365536 -4.628463,0.365536l-3.22878,0l0,-4.019473l4.903147,0c1.218689,0 2.121527,-0.142665 2.711352,-0.426577c0.587696,-0.283911 0.902128,-0.537302 0.942585,-0.761592l-10.414574,0c-3.004491,0 -5.218998,-0.430835 -6.639264,-1.293925c-1.421685,-0.86238 -2.132883,-2.218056 -2.132883,-4.065609l0,-11.754635l4.689504,0l0,11.602742c0,1.035566 1.359935,1.552994 4.081934,1.552994l10.414574,0l0,-13.155737l4.750545,0l0,16.59745l0.00071,0z" fill="#ffffff"/>
    </g>
   </g>
   <g stroke="null" id="svg_85">
    <path stroke="null" id="svg_86" d="m78.940487,42.56072c-0.12776,-0.584857 -0.611829,-0.919163 -1.164746,-0.919163c-1.005756,0 -1.431622,0.838958 -1.431622,1.669398s0.425867,1.670818 1.431622,1.670818c0.701971,0 1.149131,-0.54369 1.217979,-1.217979l0.361277,0c-0.100788,0.930519 -0.691324,1.526023 -1.579966,1.526023c-1.197396,0 -1.792899,-0.941166 -1.792899,-1.978861c0,-1.036986 0.595504,-1.978151 1.792899,-1.978151c0.718295,0 1.430913,0.430126 1.526733,1.228626l-0.361277,0l0,-0.00071z" fill="#ffffff"/>
    <path stroke="null" id="svg_87" d="m83.940873,41.332094c1.191717,0 1.787931,0.941166 1.787931,1.978151c0,1.037696 -0.596214,1.978861 -1.787931,1.978861c-1.197396,0 -1.792899,-0.941166 -1.792899,-1.978861c0,-1.036986 0.595504,-1.978151 1.792899,-1.978151zm0,3.648969c1.000787,0 1.425944,-0.841087 1.425944,-1.670818s-0.425157,-1.669398 -1.425944,-1.669398c-1.005756,0 -1.430913,0.838958 -1.430913,1.669398s0.425157,1.670818 1.430913,1.670818z" fill="#ffffff"/>
    <path stroke="null" id="svg_88" d="m90.323908,41.332094c1.191717,0 1.787221,0.941166 1.787221,1.978151c0,1.037696 -0.595504,1.978861 -1.787221,1.978861c-1.197396,0 -1.792899,-0.941166 -1.792899,-1.978861c0,-1.036986 0.595504,-1.978151 1.792899,-1.978151zm0,3.648969c1.000077,0 1.425944,-0.841087 1.425944,-1.670818s-0.425867,-1.669398 -1.425944,-1.669398c-1.005756,0 -1.430913,0.838958 -1.430913,1.669398s0.425157,1.670818 1.430913,1.670818z" fill="#ffffff"/>
    <path stroke="null" id="svg_89" d="m95.116329,41.41017l1.686433,0c0.680677,0 1.127128,0.400315 1.127128,1.08596c0,0.687065 -0.44645,1.08596 -1.127128,1.08596l-1.324446,0l0,1.627521l-0.361987,0l0,-3.799442zm0.361987,1.863167l1.244241,0c0.499684,0 0.845346,-0.25481 0.845346,-0.776497c0,-0.520977 -0.345662,-0.776497 -0.845346,-0.776497l-1.244241,0l0,1.552994z" fill="#ffffff"/>
    <path stroke="null" id="svg_90" d="m100.909538,41.41017l2.62263,0l0,0.309463l-2.260643,0l0,1.372711l2.116558,0l0,0.309463l-2.116558,0l0,1.499051l2.286905,0l0,0.309463l-2.648892,0l0,-3.800152z" fill="#ffffff"/>
    <path stroke="null" id="svg_91" d="m106.506138,41.41017l1.739666,0c0.628154,0 1.154099,0.303785 1.154099,0.99014c0,0.4791 -0.250552,0.872317 -0.739589,0.968137l0,0.011356c0.494715,0.06246 0.63809,0.403154 0.664352,0.855283c0.016325,0.261198 0.016325,0.782175 0.175315,0.973816l-0.398895,0c-0.090142,-0.149053 -0.090142,-0.430835 -0.100788,-0.590535c-0.03265,-0.532334 -0.074527,-1.122159 -0.760882,-1.095897l-1.372711,0l0,1.686433l-0.361987,0l0,-3.798732l0.00142,0zm0.361277,1.804256l1.351417,0c0.441482,0 0.818374,-0.276104 0.818374,-0.738879s-0.276104,-0.755914 -0.818374,-0.755914l-1.351417,0l0,1.494793z" fill="#ffffff"/>
    <path stroke="null" id="svg_92" d="m113.607468,41.41017l0.405283,0l1.489114,3.799442l-0.387539,0l-0.462775,-1.181071l-1.729729,0l-0.457807,1.181071l-0.388249,0l1.531701,-3.799442zm-0.57421,2.310328l1.494793,0l-0.733911,-1.946921l-0.760882,1.946921z" fill="#ffffff"/>
    <path stroke="null" id="svg_93" d="m117.518345,41.41017l3.010879,0l0,0.309463l-1.324446,0l0,3.489979l-0.361277,0l0,-3.489979l-1.324446,0l0,-0.309463l-0.00071,0z" fill="#ffffff"/>
    <path stroke="null" id="svg_94" d="m123.35485,41.41017l0.361987,0l0,3.799442l-0.361987,0l0,-3.799442z" fill="#ffffff"/>
    <path stroke="null" id="svg_95" d="m126.531816,41.41017l0.388249,0l1.234304,3.400547l0.010647,0l1.223657,-3.400547l0.38328,0l-1.408909,3.799442l-0.420898,0l-1.410329,-3.799442z" fill="#ffffff"/>
    <path stroke="null" id="svg_96" d="m133.368399,41.41017l0.404574,0l1.488405,3.799442l-0.388249,0l-0.462066,-1.181071l-1.729019,0l-0.457807,1.181071l-0.388249,0l1.532411,-3.799442zm-0.573501,2.310328l1.493373,0l-0.733911,-1.946921l-0.759463,1.946921z" fill="#ffffff"/>
    <path stroke="null" id="svg_97" d="m141.972329,41.41017l1.314509,0c1.143452,0.026972 1.744634,0.655125 1.744634,1.899366c0,1.245661 -0.601182,1.872395 -1.744634,1.899366l-1.314509,0l0,-3.798732zm0.361277,3.489979l0.772239,0c1.090219,0.006388 1.562931,-0.457097 1.562931,-1.590613c0,-1.132806 -0.472712,-1.595581 -1.562931,-1.590613l-0.772239,0l0,3.181225z" fill="#ffffff"/>
    <path stroke="null" id="svg_98" d="m148.057966,41.41017l2.62263,0l0,0.309463l-2.260643,0l0,1.372711l2.115848,0l0,0.309463l-2.115848,0l0,1.499051l2.286905,0l0,0.309463l-2.648892,0l0,-3.800152z" fill="#ffffff"/>
    <path stroke="null" id="svg_99" d="m157.167967,41.41017l3.009459,0l0,0.309463l-1.323736,0l0,3.489979l-0.361277,0l0,-3.489979l-1.324446,0l0,-0.309463z" fill="#ffffff"/>
    <path stroke="null" id="svg_100" d="m162.976081,41.41017l1.740376,0c0.627444,0 1.15268,0.303785 1.15268,0.99014c0,0.4791 -0.249842,0.872317 -0.737459,0.968137l0,0.011356c0.493296,0.06246 0.637381,0.403154 0.663642,0.855283c0.017035,0.261198 0.017035,0.782175 0.176735,0.973816l-0.398895,0c-0.090852,-0.149053 -0.090852,-0.430835 -0.100788,-0.590535c-0.03194,-0.532334 -0.074527,-1.122159 -0.761592,-1.095897l-1.372001,0l0,1.686433l-0.362697,0l0,-3.798732zm0.362697,1.804256l1.350708,0c0.442192,0 0.819084,-0.276104 0.819084,-0.738879s-0.276813,-0.755914 -0.819084,-0.755914l-1.350708,0l0,1.494793z" fill="#ffffff"/>
    <path stroke="null" id="svg_101" d="m170.078121,41.41017l0.403864,0l1.489114,3.799442l-0.387539,0l-0.463485,-1.181071l-1.729019,0l-0.457097,1.181071l-0.388249,0l1.532411,-3.799442zm-0.57421,2.310328l1.493373,0l-0.733201,-1.946921l-0.760172,1.946921z" fill="#ffffff"/>
    <path stroke="null" id="svg_102" d="m174.760526,41.41017l1.606938,0c0.636671,0 1.217269,0.22429 1.217269,0.931939c0,0.398895 -0.266167,0.765851 -0.659384,0.850314l0,0.011356c0.488327,0.06388 0.803469,0.430126 0.803469,0.925551c0,0.361277 -0.12847,1.079572 -1.361354,1.079572l-1.606938,0l0,-3.798732zm0.359857,1.665849l1.24637,0c0.579179,0 0.855283,-0.28675 0.855283,-0.643769c0,-0.472712 -0.292429,-0.712617 -0.855283,-0.712617l-1.24637,0l0,1.356386zm0,1.82413l1.24637,0c0.535882,0.006388 0.998658,-0.174605 0.998658,-0.781466c0,-0.484778 -0.366245,-0.73462 -0.998658,-0.73462l-1.24637,0l0,1.516086z" fill="#ffffff"/>
    <path stroke="null" id="svg_103" d="m181.860437,41.41017l0.404574,0l1.490534,3.799442l-0.389668,0l-0.461356,-1.181071l-1.729729,0l-0.458517,1.181071l-0.388249,0l1.532411,-3.799442zm-0.57421,2.310328l1.494793,0l-0.733911,-1.946921l-0.760882,1.946921z" fill="#ffffff"/>
    <path stroke="null" id="svg_104" d="m188.073834,41.41017l0.362697,0l0,2.740453c0,0.771529 -0.28817,1.138484 -1.107254,1.138484c-0.872317,0 -1.063957,-0.63809 -1.058279,-1.298184l0.361987,0c0.009937,0.324369 -0.021293,0.99014 0.728232,0.99014c0.564274,0 0.712617,-0.28746 0.712617,-0.983752l0,-2.587141z" fill="#ffffff"/>
    <path stroke="null" id="svg_105" d="m193.23463,41.332094c1.191717,0 1.787931,0.941166 1.787931,1.978151c0,1.037696 -0.596214,1.978861 -1.787931,1.978861c-1.197396,0 -1.792899,-0.941166 -1.792899,-1.978861c0,-1.036986 0.595504,-1.978151 1.792899,-1.978151zm0,3.648969c0.999368,0 1.426654,-0.841087 1.426654,-1.670818s-0.427286,-1.669398 -1.426654,-1.669398c-1.005046,0 -1.431622,0.838958 -1.431622,1.669398s0.426577,1.670818 1.431622,1.670818z" fill="#ffffff"/>
    <path stroke="null" id="svg_106" d="m201.949995,41.41017l0.361277,0l0,3.489979l2.127915,0l0,0.309463l-2.489192,0l0,-3.799442z" fill="#ffffff"/>
    <path stroke="null" id="svg_107" d="m207.27475,41.41017l0.361277,0l0,3.799442l-0.361277,0l0,-3.799442z" fill="#ffffff"/>
    <path stroke="null" id="svg_108" d="m210.862678,41.41017l0.532334,0l1.313799,3.331698l1.308831,-3.331698l0.531624,0l0,3.799442l-0.361987,0l0,-3.282014l-0.010647,0l-1.298184,3.282014l-0.339984,0l-1.303862,-3.282014l-0.010647,0l0,3.282014l-0.361987,0l0,-3.799442l0.00071,0z" fill="#ffffff"/>
    <path stroke="null" id="svg_109" d="m217.770948,41.41017l0.361277,0l0,3.799442l-0.361277,0l0,-3.799442z" fill="#ffffff"/>
    <path stroke="null" id="svg_110" d="m220.959271,41.41017l3.012298,0l0,0.309463l-1.324446,0l0,3.489979l-0.361277,0l0,-3.489979l-1.326575,0l0,-0.309463z" fill="#ffffff"/>
    <path stroke="null" id="svg_111" d="m227.52046,41.41017l0.405283,0l1.489114,3.799442l-0.388958,0l-0.462066,-1.181071l-1.729019,0l-0.458517,1.181071l-0.388249,0l1.532411,-3.799442zm-0.57421,2.310328l1.494793,0l-0.73533,-1.946921l-0.759463,1.946921z" fill="#ffffff"/>
    <path stroke="null" id="svg_112" d="m232.202156,41.41017l1.314509,0c1.143452,0.026972 1.743925,0.655125 1.743925,1.899366c0,1.245661 -0.600472,1.872395 -1.743925,1.899366l-1.314509,0l0,-3.798732zm0.361277,3.489979l0.772239,0c1.089509,0.006388 1.562931,-0.457097 1.562931,-1.590613c0,-1.132806 -0.473422,-1.595581 -1.562931,-1.590613l-0.772239,0l0,3.181225z" fill="#ffffff"/>
    <path stroke="null" id="svg_113" d="m239.399306,41.41017l0.403154,0l1.490534,3.799442l-0.388249,0l-0.462775,-1.181071l-1.729729,0l-0.457097,1.181071l-0.388249,0l1.532411,-3.799442zm-0.57492,2.310328l1.494083,0l-0.733911,-1.946921l-0.760172,1.946921z" fill="#ffffff"/>
   </g>
   <g stroke="null" id="svg_114">
    <circle stroke="null" id="svg_115" r="8.40306" cy="30.874934" cx="42.100876" fill="#ADD136"/>
    <ellipse stroke="null" id="svg_116" ry="4.070577" rx="5.775464" cy="26.878174" cx="42.100876" fill="url(#SVGID_4_)"/>
    <path stroke="null" id="svg_117" d="m8.423326,33.138416c2.115848,2.127915 4.101807,3.016557 4.101807,3.016557l6.918207,-4.109615l0.242034,-1.942663l-1.697789,0.881544c-1.684303,-1.976732 -2.474996,-4.019473 -2.099524,-5.941552c0.970976,-4.976254 9.413077,-7.536424 19.92418,-6.500148l0.149053,-1.861748c-16.007625,-2.824207 -29.698534,0.486198 -31.121639,7.77278c-0.549368,2.811431 0.807727,5.8216 3.583669,8.684844z" fill="#58595B"/>
    <path stroke="null" id="svg_118" d="m38.437711,15.147671l-0.038328,1.56861c0,0 0.966718,2.282646 0.966718,2.281936c0.413801,0.078076 1.786511,0.347791 2.201732,0.441482c11.29044,2.534617 20.905803,8.527274 21.388452,13.829316c0.016325,0.184542 -0.072397,0.378312 -0.075946,0.561434l-0.040457,1.563641l3.521919,2.404728c0,0 0.47981,-1.301023 0.547949,-2.328072c0.12776,-1.925628 -0.379731,-3.762534 -0.95891,-5.000387c-3.0052,-6.422072 -13.597218,-10.127823 -26.466205,-13.075532l-1.046923,-2.247157z" fill="#58595B"/>
    <path stroke="null" id="svg_119" d="m64.734279,38.37019l-2.379886,-1.516086c-2.946999,4.543289 -13.326083,6.264501 -24.933084,3.802281c-7.171598,-1.521054 -13.310468,-4.322548 -17.197213,-7.508742l-4.863399,2.454413c0,0 -0.372633,2.541715 -0.261908,2.602046c4.879724,2.658119 10.957554,5.170733 17.84595,6.632166c14.531286,3.079727 27.374721,1.198105 31.809414,-4.196208l-0.019874,-2.26987z" fill="#58595B"/>
    <path stroke="null" id="svg_120" d="m60.900768,35.929264c-4.280672,3.03856 -13.343828,3.954883 -23.307692,1.925628c-6.046599,-1.230045 -11.362127,-3.330279 -15.225449,-5.78966l-7.006219,3.535405c4.791002,2.658119 10.90432,4.897469 17.732386,6.287214c14.045088,2.858986 26.721015,1.237143 31.641197,-3.51908l-3.834221,-2.439507z" fill="#ADD136"/>
    <path stroke="null" id="svg_121" d="m39.484634,17.395539c0.823343,0.12918 4.500703,1.156228 5.91813,1.636748c12.123719,4.108905 17.329232,8.21923 17.945319,12.876084c0.06388,0.490457 -0.221451,1.485566 -0.468454,1.922079l3.558117,2.105912c0.03336,-0.079495 0.198028,-0.373343 0.347791,-1.105124c1.499761,-7.377433 -11.147774,-16.18152 -28.252006,-19.664401c-0.03194,-0.006388 -0.06317,-0.012066 -0.09582,-0.019164l1.046923,2.247867z" fill="#ADD136"/>
    <path stroke="null" id="svg_122" d="m12.476868,33.843936l7.209216,-3.74124c-2.788718,-2.376337 -4.22105,-4.940765 -3.738401,-7.313553c0.975235,-4.788873 9.489733,-7.086424 20.014322,-6.10764l-0.919872,-2.136432c-15.621506,-2.403309 -28.802794,0.805598 -30.200347,7.67696c-0.775787,3.802991 2.216637,7.984294 7.635083,11.621906z" fill="#ADD136"/>
    <circle stroke="null" id="svg_123" r="7.918993" cy="10.188452" cx="18.26014" fill="#ADD136"/>
    <ellipse stroke="null" id="svg_124" ry="3.87042" rx="5.489424" cy="6.355651" cx="18.204777" fill="url(#SVGID_5_)"/>
    <path stroke="null" id="svg_125" d="m64.542639,18.364386c0,3.212456 -2.605595,5.816631 -5.818051,5.816631c-3.212456,0 -5.818051,-2.604176 -5.818051,-5.816631c0,-3.215295 2.605595,-5.818761 5.818051,-5.818761c3.213165,0 5.818051,2.603466 5.818051,5.818761z" fill="#ADD136"/>
    <ellipse stroke="null" id="svg_126" ry="3.762534" rx="4.356618" cy="16.468568" cx="58.689809" fill="url(#SVGID_6_)"/>
   </g>
  </g>
 </g>
</svg>